<?xml version="1.0" standalone="no"?>
<!DOCTYPE svg PUBLIC "-//W3C//DTD SVG 20010904//EN"
 "http://www.w3.org/TR/2001/REC-SVG-20010904/DTD/svg10.dtd">
<svg version="1.0" xmlns="http://www.w3.org/2000/svg"
 width="500.000000pt" height="500.000000pt" viewBox="0 0 500.000000 500.000000"
 preserveAspectRatio="xMidYMid meet">

<g transform="translate(0.000000,500.000000) scale(0.100000,-0.100000)"
fill="#000000" stroke="none">
<path d="M1910 3732 c0 -6 13 -19 30 -28 60 -36 63 -60 68 -469 5 -504 -3
-554 -99 -584 -57 -18 -74 -26 -74 -37 0 -5 118 -10 263 -12 l262 -2 0 25 c0
25 -1 25 -85 25 l-85 0 0 520 0 520 88 0 c102 0 224 -27 286 -64 58 -35 133
-112 168 -172 28 -50 31 -52 96 -69 36 -9 88 -27 115 -40 l49 -23 -6 31 c-26
129 -139 259 -272 314 -151 63 -172 66 -501 70 -206 4 -303 2 -303 -5z"/>
<path d="M2316 3361 c-4 -6 7 -20 28 -32 25 -14 39 -32 46 -57 14 -51 13 -884
-1 -935 -13 -46 -51 -72 -120 -81 -40 -5 -49 -10 -49 -27 0 -19 7 -19 257 -17
230 3 258 5 261 19 2 14 -9 18 -56 24 -32 3 -64 10 -72 15 -24 15 -27 99 -22
571 l5 469 71 0 c46 0 84 -7 108 -18 81 -38 127 -144 113 -261 -17 -134 -83
-213 -212 -251 l-43 -13 0 -69 c0 -65 1 -68 24 -68 13 0 28 -6 34 -12 35 -43
185 -321 194 -360 l11 -48 154 0 c170 0 186 7 108 49 -25 13 -58 38 -74 56
-31 36 -251 380 -251 393 0 5 19 22 43 37 90 60 128 100 163 170 99 201 24
358 -206 430 -69 21 -503 35 -514 16z"/>
<path d="M2927 1893 c-14 -23 -46 -114 -38 -109 4 3 24 -38 43 -92 l35 -97
-71 -3 c-48 -2 -72 1 -75 9 -2 7 -15 -14 -28 -46 -13 -31 -22 -59 -20 -61 2
-3 12 16 21 41 l18 45 78 0 c90 0 84 5 120 -102 l23 -68 43 0 44 0 -26 68
c-15 37 -44 114 -65 172 -64 176 -96 253 -102 243z"/>
<path d="M3418 1886 c-106 -38 -167 -127 -168 -247 -1 -139 110 -241 259 -238
l56 2 -58 6 c-52 6 -63 11 -97 48 -120 128 -78 389 69 433 l26 8 -25 1 c-14 0
-42 -6 -62 -13z"/>
<path d="M3560 1885 c41 -19 90 -63 90 -81 0 -7 5 -16 10 -19 6 -4 10 9 10 33
0 34 -4 40 -34 55 -19 8 -51 18 -72 22 l-39 6 35 -16z"/>
<path d="M1360 1650 l0 -240 40 0 40 0 0 240 0 240 -40 0 -40 0 0 -240z"/>
<path d="M1555 1876 c40 -18 90 -72 109 -118 21 -49 21 -177 0 -226 -19 -46
-60 -90 -99 -108 -23 -10 -25 -13 -10 -14 72 -1 163 61 196 135 28 60 25 149
-6 212 -37 74 -122 132 -195 132 -24 0 -24 0 5 -13z"/>
<path d="M1940 1650 l0 -240 38 0 37 0 0 240 0 240 -37 0 -38 0 0 -240z"/>
<path d="M2225 1650 l0 -240 43 0 42 0 0 120 c0 94 3 120 13 120 20 0 38 -25
91 -123 26 -48 57 -94 70 -102 12 -8 45 -18 72 -21 l49 -7 -26 25 c-14 13 -54
65 -87 116 -34 50 -70 95 -79 101 -17 9 -17 10 2 16 55 17 89 42 102 74 31 73
-16 148 -98 158 l-44 6 27 -22 c35 -28 50 -83 38 -136 -11 -51 -41 -75 -91
-75 l-39 0 0 115 0 115 -42 0 -43 0 0 -240z"/>
<path d="M2866 1755 c-9 -26 -7 -32 5 -12 6 10 9 21 6 23 -2 3 -7 -2 -11 -11z"/>
<path d="M2836 1675 c-9 -26 -7 -32 5 -12 6 10 9 21 6 23 -2 3 -7 -2 -11 -11z"/>
<path d="M3637 1459 c-21 -22 -29 -35 -18 -30 16 9 69 72 59 71 -2 -1 -20 -19
-41 -41z"/>
<path d="M2751 1449 c-6 -18 -9 -34 -7 -36 2 -2 9 10 15 28 6 18 9 34 7 36 -2
2 -9 -10 -15 -28z"/>
</g>
</svg>
